# xmcd
#
# Track frame offsets:
#	150
#	20454
#	38194
#	55065
#	74764
#	90891
#	109306
#	127383
#	147065
#	160410
#	178040
#	192529
#	209033
#	223106
#	245591
#	274710
#
# Disc length: 3670 seconds
#
# Revision: 2
# Processed by: cddbd v1.5.2PL0 Copyright (c) Steve Scherf et al.
# Submitted via: audiograbber 1.83.01
#
DISCID=000e5410
DTITLE=Mixed Country Volume 1 - ASK1517 
DYEAR=2004
DGENRE=Karaoke
TTITLE0=Jackson, Alan - Remember When
TTITLE1=Duet Jackson, Alan feat. Jimmy Buffett - Five O'Clock Somewhere
TTITLE2=Paisley, Brad - Celebrity
TTITLE3=Brooks and Dunn - Red Dirt Road
TTITLE4=Wilson, Gretchen - Redneck Woman
TTITLE5=Messina, Jo Dee - Burn
TTITLE6=Chesney, Kenny - Big Star
TTITLE7=Rimes, LeAnn - How Do I Live
TTITLE8=Womack, Lee Ann - The Wrong Girl
TTITLE9=Lonestar - Let's Be Us Again
TTITLE10=McBride, Martina - In My Daughter's Eyes
TTITLE11=Loveless, Patty - Lovin' All Night
TTITLE12=McEntire, Reba - I'm A Survivor
TTITLE13=Trevino, Rick - In My Dreams
TTITLE14=Keith, Toby - Whiskey Girl
TTITLE15=data only - Data Track
EXTD=
EXTT0=
EXTT1=
EXTT2=
EXTT3=
EXTT4=
EXTT5=
EXTT6=
EXTT7=
EXTT8=
EXTT9=
EXTT10=
EXTT11=
EXTT12=
EXTT13=
EXTT14=
EXTT15=
PLAYORDER=
